<svg width="61" height="61" viewBox="0 0 61 61" fill="none" xmlns="http://www.w3.org/2000/svg">
<path d="M13.9233 37.8276L9.28727 33.0239C3.68289 27.2136 3.68289 17.8349 9.28727 12.0272C10.6118 10.6369 12.2049 9.53004 13.97 8.77377C15.7351 8.0175 17.6353 7.62754 19.5556 7.62754C21.4759 7.62754 23.3761 8.0175 25.1412 8.77377C26.9063 9.53004 28.4994 10.6369 29.8239 12.0272L30.5 12.7236L31.1736 12.0272C32.4997 10.6388 34.0931 9.53302 35.8577 8.77649C37.6224 8.01995 39.5219 7.62827 41.4419 7.625C45.3052 7.625 48.9983 9.211 51.7102 12.0272C54.4171 14.8506 55.9248 18.6129 55.9167 22.5243C55.9254 26.4352 54.4187 30.1975 51.7128 33.0213C50.181 34.6141 48.656 36.2162 47.1378 37.8276M30.5 54.6458V27.9583M30.5 54.6458L40.6667 44.4792M30.5 54.6458L20.3333 44.4792" stroke="black" stroke-width="1.5" stroke-linecap="round" stroke-linejoin="round"/>
</svg>
