<svg width="65" height="65" viewBox="0 0 65 65" fill="none" xmlns="http://www.w3.org/2000/svg">
<g clip-path="url(#clip0_118_1660)">
<path d="M52.3333 9C53.7699 9 55.1477 9.57068 56.1635 10.5865C57.1793 11.6023 57.75 12.9801 57.75 14.4167V52.3333C57.75 53.7699 57.1793 55.1477 56.1635 56.1635C55.1477 57.1793 53.7699 57.75 52.3333 57.75H14.4167C12.9801 57.75 11.6023 57.1793 10.5865 56.1635C9.57068 55.1477 9 53.7699 9 52.3333V14.4167C9 12.9801 9.57068 11.6023 10.5865 10.5865C11.6023 9.57068 12.9801 9 14.4167 9H52.3333ZM52.3333 14.4167H14.4167V52.3333H52.3333V14.4167ZM33.4752 21.8077C34.2092 19.4569 37.3752 19.2348 38.4856 21.3094L38.6265 21.6073L43.3335 33.375H46.9167C47.607 33.3758 48.2709 33.6401 48.7729 34.114C49.2748 34.5878 49.5769 35.2355 49.6173 35.9246C49.6578 36.6137 49.4336 37.2923 48.9905 37.8216C48.5475 38.351 47.919 38.6912 47.2335 38.7727L46.9167 38.7917H41.519C41.0285 38.792 40.547 38.6604 40.1248 38.4107C39.7026 38.161 39.3554 37.8024 39.1194 37.3725L38.9785 37.0746L36.3975 30.6179L31.9179 44.9531C31.2165 47.1956 28.2481 47.5342 27.024 45.6438L26.8615 45.3594L23.5735 38.7917H19.8333C19.143 38.7909 18.4791 38.5266 17.9771 38.0527C17.4752 37.5788 17.1731 36.9312 17.1327 36.2421C17.0922 35.5529 17.3164 34.8744 17.7595 34.345C18.2025 33.8157 18.831 33.4755 19.5165 33.394L19.8333 33.375H25.2338C26.1546 33.375 27.005 33.8354 27.5087 34.591L27.6794 34.889L28.7302 36.9906L33.4752 21.8077Z" fill="black"/>
</g>
<defs>
<clipPath id="clip0_118_1660">
<rect width="65" height="65" fill="white"/>
</clipPath>
</defs>
</svg>
