<svg width="52" height="52" viewBox="0 0 52 52" fill="none" xmlns="http://www.w3.org/2000/svg">
<path d="M27.625 4.875C27.625 4.44402 27.4538 4.0307 27.1491 3.72595C26.8443 3.4212 26.431 3.25 26 3.25C25.5691 3.25 25.1557 3.4212 24.851 3.72595C24.5462 4.0307 24.375 4.44402 24.375 4.875V21.9148L22.75 23.075V15.34C22.75 12.2525 20.2475 9.75 17.16 9.75C15.457 9.75 13.8353 10.6275 12.4703 11.674C11.0695 12.753 9.71753 14.1863 8.51828 15.6683C6.12628 18.6193 4.14053 21.9928 3.38328 23.7283C2.81128 25.0445 2.10603 27.4983 1.57628 30.264C1.04003 33.0493 0.656526 36.2993 0.793026 39.2308C0.923026 42.0485 1.55028 45.0483 3.51653 46.8033C5.69403 48.7533 8.78803 48.6103 12.4248 46.7903L18.2585 43.875C19.6081 43.2002 20.7432 42.163 21.5365 40.8795C22.3298 39.5959 22.75 38.1169 22.75 36.608V34.125C22.75 33.694 22.5788 33.2807 22.2741 32.976C21.9693 32.6712 21.556 32.5 21.125 32.5C20.6941 32.5 20.2807 32.6712 19.976 32.976C19.6712 33.2807 19.5 33.694 19.5 34.125V36.608C19.5 37.5138 19.2476 38.4017 18.7711 39.1721C18.2947 39.9425 17.613 40.5649 16.8025 40.9695L10.972 43.8848C7.79353 45.474 6.37328 44.9995 5.68103 44.3787C4.77103 43.5662 4.16328 41.7755 4.03978 39.0812C3.91953 36.4975 4.26078 33.5237 4.76778 30.875C5.27803 28.21 5.92803 26.0292 6.36353 25.025C6.98103 23.6015 8.80103 20.475 11.0435 17.7125C12.155 16.341 13.3283 15.1158 14.4528 14.2513C15.6163 13.3543 16.5295 13 17.16 13C17.7806 13 18.3758 13.2465 18.8147 13.6854C19.2535 14.1242 19.5 14.7194 19.5 15.34V25.3955L13.6825 29.5555C13.3563 29.8145 13.142 30.1889 13.0838 30.6013C13.0256 31.0138 13.1281 31.4329 13.37 31.772C13.6119 32.1111 13.9748 32.3443 14.3838 32.4235C14.7927 32.5028 15.2165 32.422 15.5675 32.1977L26 24.7455L36.4325 32.1977C36.6058 32.3297 36.8037 32.4254 37.0147 32.4793C37.2256 32.5332 37.4453 32.5442 37.6605 32.5115C37.8758 32.4789 38.0823 32.4033 38.2678 32.2893C38.4533 32.1753 38.614 32.0252 38.7404 31.8479C38.8667 31.6705 38.9561 31.4696 39.0033 31.2571C39.0505 31.0445 39.0545 30.8246 39.0151 30.6105C38.9756 30.3964 38.8936 30.1924 38.7737 30.0106C38.6539 29.8288 38.4988 29.6729 38.3175 29.5523L32.5 25.3955V15.34C32.5 14.7194 32.7466 14.1242 33.1854 13.6854C33.6242 13.2465 34.2194 13 34.84 13C35.4705 13 36.3838 13.3575 37.5473 14.2513C38.6718 15.1158 39.8418 16.341 40.9598 17.7158C43.1958 20.4783 45.0158 23.6015 45.6365 25.025C46.072 26.0292 46.722 28.21 47.2323 30.875C47.7393 33.5205 48.0773 36.4975 47.9603 39.0812C47.8368 41.7755 47.2323 43.5662 46.319 44.3787C45.6268 44.9962 44.2065 45.474 41.028 43.8848L35.1943 40.9695C34.3844 40.5644 33.7034 39.9419 33.2275 39.1715C32.7517 38.4011 32.4998 37.5135 32.5 36.608V34.125C32.5 33.694 32.3288 33.2807 32.0241 32.976C31.7193 32.6712 31.306 32.5 30.875 32.5C30.444 32.5 30.0307 32.6712 29.726 32.976C29.4212 33.2807 29.25 33.694 29.25 34.125V36.608C29.2501 38.1169 29.6703 39.5959 30.4636 40.8795C31.2569 42.163 32.3919 43.2002 33.7415 43.875L39.5753 46.7903C43.2153 48.6103 46.3028 48.75 48.4835 46.8033C50.4498 45.0483 51.077 42.0485 51.207 39.2308C51.3435 36.2993 50.96 33.0493 50.427 30.264C49.894 27.495 49.192 25.0445 48.6135 23.725C47.8595 21.9928 45.8738 18.6193 43.4818 15.6683C42.2793 14.1863 40.9305 12.753 39.5298 11.674C38.1648 10.6275 36.543 9.75 34.84 9.75C31.7525 9.75 29.25 12.2525 29.25 15.34V23.075L27.625 21.9148V4.875Z" fill="black"/>
</svg>
