<svg width="65" height="65" viewBox="0 0 65 65" fill="none" xmlns="http://www.w3.org/2000/svg">
<path d="M32.5 17.791C35.1639 19.9279 37.0869 22.8496 37.9959 26.1414C38.9049 29.4332 38.7538 32.9277 37.5639 36.1287C36.3741 39.3297 34.206 42.0744 31.3676 43.9733C28.5292 45.8721 25.1647 46.8285 21.7519 46.7065C18.3391 46.5846 15.0515 45.3906 12.3558 43.294C9.66015 41.1974 7.69352 38.3049 6.73516 35.0272C5.7768 31.7494 5.87544 28.253 7.01706 25.0345C8.15868 21.816 10.2853 19.039 13.0948 17.0977M22.3438 46.7188V62.9688" stroke="black" stroke-width="4.0625" stroke-linecap="round" stroke-linejoin="round"/>
<path d="M26.0921 37.44C23.655 35.3858 21.8759 32.6602 20.9761 29.6025C20.0764 26.5448 20.0957 23.2901 21.0316 20.2433C21.9676 17.1965 23.7789 14.4922 26.2401 12.467C28.7014 10.4418 31.7038 9.18517 34.8738 8.85342C38.0439 8.52168 41.2414 9.1295 44.0686 10.6012C46.8958 12.073 49.2278 14.3437 50.7742 17.1307C52.3207 19.9177 53.0135 23.0979 52.7662 26.2757C52.519 29.4534 51.3427 32.4882 49.3837 35.0025M48.054 13.52L58.9062 2.03125M58.9062 2.03125H48.75M58.9062 2.03125V12.1875M14.2188 54.8437H30.4687" stroke="black" stroke-width="4.0625" stroke-linecap="round" stroke-linejoin="round"/>
</svg>
