<svg width="40" height="40" viewBox="0 0 40 40" fill="none" xmlns="http://www.w3.org/2000/svg">
<path d="M15.6231 10.68C14.1731 10.7359 12.8623 11.2534 12.1614 11.955C12.084 12.0324 11.9921 12.0938 11.891 12.1356C11.7898 12.1775 11.6814 12.199 11.572 12.1989C11.4625 12.1989 11.3541 12.1773 11.253 12.1354C11.1519 12.0935 11.0601 12.032 10.9827 11.9546C10.9053 11.8772 10.844 11.7853 10.8021 11.6841C10.7603 11.583 10.7387 11.4746 10.7388 11.3651C10.7388 11.2557 10.7604 11.1473 10.8023 11.0462C10.8443 10.9451 10.9057 10.8532 10.9831 10.7759C12.0639 9.69503 13.8239 9.08169 15.5581 9.01419C17.3039 8.94669 19.2098 9.42419 20.5448 10.7592C20.701 10.9156 20.7888 11.1276 20.7887 11.3487C20.7886 11.5697 20.7007 11.7817 20.5444 11.9379C20.388 12.0942 20.176 12.1819 19.9549 12.1819C19.7338 12.1818 19.5219 12.0939 19.3656 11.9375C18.4573 11.0284 17.0623 10.6234 15.6231 10.6792" fill="black"/>
<path fill-rule="evenodd" clip-rule="evenodd" d="M22.82 24.1133C20.8673 25.7656 18.3912 26.6705 15.8333 26.6667C9.85 26.6667 5 21.8167 5 15.8333C5 9.85 9.85 5 15.8333 5C21.8167 5 26.6667 9.85 26.6667 15.8333C26.6667 18.4958 25.7067 20.9333 24.1133 22.82L25.9533 22.5L34.5233 31.07C35.1592 31.7058 35.1592 32.7367 34.5233 33.3717L33.3717 34.5233C32.7358 35.1592 31.705 35.1592 31.07 34.5233L22.5 25.9533L22.82 24.1133ZM25 15.8333C25 20.8958 20.8958 25 15.8333 25C10.7708 25 6.66667 20.8958 6.66667 15.8333C6.66667 10.7708 10.7708 6.66667 15.8333 6.66667C20.8958 6.66667 25 10.7708 25 15.8333ZM31.0408 29.9442L25.3867 24.29L24.4533 24.4525L24.29 25.3867L29.9608 31.0575L31.0408 29.9442ZM31.1392 32.2358L32.2208 33.3175L33.3175 32.2208L32.2192 31.1225L31.1392 32.2358Z" fill="black"/>
</svg>
