<svg width="65" height="65" viewBox="0 0 65 65" fill="none" xmlns="http://www.w3.org/2000/svg">
<path d="M8.125 24.6892V17.9102C8.125 16.668 8.54299 15.6298 9.37896 14.7956C10.2149 13.9614 11.2549 13.5435 12.499 13.5417H52.501C53.7469 13.5417 54.7869 13.9596 55.621 14.7956C56.4552 15.6316 56.8732 16.6725 56.875 17.9183V32.5H54.1667V17.9183C54.1667 17.5012 53.9933 17.1185 53.6467 16.77C53.3 16.4215 52.9181 16.2482 52.501 16.25H12.499C12.0837 16.25 11.7018 16.4233 11.3533 16.77C11.0049 17.1167 10.8315 17.4994 10.8333 17.9183V24.6892H8.125ZM12.5017 51.4583C11.254 51.4583 10.2131 51.0412 9.37896 50.2071C8.54479 49.3729 8.12681 48.3338 8.125 47.0898V40.3135H10.8333V47.0844C10.8333 47.4996 11.0067 47.8815 11.3533 48.23C11.7 48.5785 12.0819 48.7518 12.499 48.75H29.7402V51.4583H12.5017ZM48.75 58.6462L45.7654 56.1139C42.0026 52.8676 39.5976 50.6106 38.5504 49.3431C37.5032 48.0738 36.9796 46.8009 36.9796 45.5244C36.9796 43.9337 37.5303 42.5633 38.6317 41.4131C39.7331 40.263 41.0746 39.6879 42.6562 39.6879C43.4706 39.6879 44.2469 39.8721 44.9854 40.2404C45.7203 40.6087 46.4542 41.1558 47.1873 41.8817L48.75 43.2873L50.2098 41.9331C50.932 41.2073 51.675 40.6512 52.4387 40.2648C53.2025 39.8784 54.0042 39.6861 54.8437 39.6879C56.3911 39.6879 57.7245 40.263 58.844 41.4131C59.9634 42.5633 60.5231 43.9346 60.5231 45.5271C60.5231 46.8018 59.9878 48.0729 58.9171 49.3404C57.8464 50.6097 55.4297 52.8676 51.6669 56.1139L48.75 58.6462ZM48.75 55.0117L50.8544 53.2458C53.7649 50.7668 55.6517 49.0515 56.5148 48.1C57.3815 47.1503 57.8148 46.2908 57.8148 45.5217C57.8148 44.6875 57.5169 43.958 56.921 43.3333C56.3288 42.7086 55.6364 42.3962 54.8437 42.3962C54.3508 42.3962 53.904 42.4919 53.5031 42.6833C53.1023 42.8747 52.6635 43.2042 52.1869 43.6719L48.75 46.9571L45.2454 43.6719C44.7687 43.206 44.3273 42.8765 43.921 42.6833C43.5148 42.4901 43.0932 42.3944 42.6562 42.3962C41.8257 42.3962 41.1233 42.7086 40.5492 43.3333C39.975 43.958 39.6879 44.6875 39.6879 45.5217C39.6879 46.2728 40.161 47.171 41.1071 48.2164C42.0532 49.2637 43.9292 50.9744 46.735 53.3487L48.75 55.0117ZM18.9583 44.6875C18.6604 44.6875 18.4094 44.6333 18.2054 44.525C18.0032 44.4149 17.8407 44.2325 17.7179 43.9779L12.6804 33.8542H8.125V31.1458H13.5417C13.7872 31.1458 14.0165 31.2153 14.2296 31.3544C14.4408 31.4916 14.6024 31.6758 14.7144 31.9069L18.9583 40.3271L28.5512 21.0708C28.6668 20.8632 28.8392 20.707 29.0685 20.6023C29.2978 20.4976 29.5389 20.4461 29.7917 20.4479C30.0444 20.4497 30.2792 20.5021 30.4958 20.605C30.7125 20.7079 30.8741 20.8641 30.9806 21.0735L35.9992 31.1458H44.6875V33.8542H35.2083C34.9104 33.8542 34.6594 33.8 34.4554 33.6917C34.2532 33.5815 34.0907 33.4001 33.9679 33.1473L29.7402 24.7379L20.131 43.9806C20.0083 44.2334 19.8431 44.4139 19.6354 44.5223C19.426 44.6324 19.2003 44.6875 18.9583 44.6875Z" fill="black"/>
</svg>
