<svg width="40" height="40" viewBox="0 0 40 40" fill="none" xmlns="http://www.w3.org/2000/svg">
<path d="M19.9365 33.3333C16.7354 33.3333 13.9265 32.3511 11.5098 30.3867C9.09315 28.4222 7.5676 25.9044 6.93315 22.8333C6.86427 22.5878 6.88871 22.3605 7.00649 22.1517C7.12427 21.9428 7.30927 21.8217 7.56149 21.7883C7.79815 21.755 8.00649 21.8067 8.18649 21.9433C8.36538 22.08 8.4926 22.2744 8.56815 22.5267C9.17038 25.1755 10.5293 27.3611 12.6448 29.0833C14.7604 30.8055 17.1909 31.6667 19.9365 31.6667C23.1865 31.6667 25.9432 30.535 28.2065 28.2717C30.4698 26.0083 31.602 23.2511 31.6032 20C31.6043 16.7489 30.472 13.9917 28.2065 11.7283C25.9409 9.46499 23.1843 8.33332 19.9365 8.33332C18.2109 8.33332 16.5898 8.69777 15.0732 9.42666C13.5565 10.1544 12.2176 11.1572 11.0565 12.435H14.3582C14.5948 12.435 14.7932 12.515 14.9532 12.675C15.1132 12.835 15.1926 13.0333 15.1915 13.27C15.1904 13.5067 15.1109 13.7044 14.9532 13.8633C14.7954 14.0222 14.597 14.1017 14.3582 14.1017H9.61649C9.23538 14.1017 8.91593 13.9728 8.65815 13.715C8.40038 13.4572 8.27149 13.1378 8.27149 12.7567V8.01332C8.27149 7.77666 8.35149 7.57888 8.51149 7.41999C8.67149 7.2611 8.86927 7.1811 9.10482 7.17999C9.34038 7.17888 9.53815 7.25888 9.69815 7.41999C9.85815 7.5811 9.93815 7.77888 9.93815 8.01332V11.16C11.227 9.74555 12.737 8.64332 14.4682 7.85332C16.1993 7.06332 18.022 6.66777 19.9365 6.66666C21.7865 6.66666 23.5193 7.01443 25.1348 7.70999C26.7504 8.40555 28.162 9.35777 29.3698 10.5667C30.5776 11.7755 31.5298 13.1867 32.2265 14.8C32.9232 16.4133 33.2709 18.1461 33.2698 19.9983C33.2687 21.8505 32.9209 23.5839 32.2265 25.1983C31.532 26.8128 30.5798 28.225 29.3698 29.435C28.1598 30.645 26.7482 31.5967 25.1348 32.29C23.5215 32.9833 21.7898 33.3311 19.9365 33.3333ZM20.8648 19.6533L25.8648 24.6533C26.0204 24.8089 26.1037 25 26.1148 25.2267C26.1259 25.4544 26.0426 25.6567 25.8648 25.8333C25.687 26.0111 25.4909 26.1 25.2765 26.1C25.0598 26.1 24.8632 26.0111 24.6865 25.8333L19.6032 20.75C19.4576 20.6055 19.3537 20.4533 19.2915 20.2933C19.2293 20.1333 19.1982 19.9683 19.1982 19.7983V12.5C19.1982 12.2633 19.2782 12.0655 19.4382 11.9067C19.5982 11.7467 19.7965 11.6667 20.0332 11.6667C20.2698 11.6667 20.4676 11.7467 20.6265 11.9067C20.7854 12.0667 20.8648 12.2644 20.8648 12.5V19.6533Z" fill="black"/>
</svg>
