<svg width="219" height="219" viewBox="0 0 219 219" fill="none" xmlns="http://www.w3.org/2000/svg">
<path d="M60.225 91.25H158.775C166.805 91.25 173.375 97.82 173.375 105.85V169.725C173.375 181.77 163.52 191.625 151.475 191.625H67.525C55.48 191.625 45.625 181.77 45.625 169.725V105.85C45.625 97.82 52.195 91.25 60.225 91.25Z" fill="black" fill-opacity="0.16"/>
<path d="M73 91.25V63.875C73 43.7087 89.3337 27.375 109.5 27.375C129.666 27.375 146 43.7087 146 63.875V91.25M109.5 136.875C111.92 136.875 114.241 135.914 115.952 134.202C117.664 132.491 118.625 130.17 118.625 127.75C118.625 125.33 117.664 123.009 115.952 121.298C114.241 119.586 111.92 118.625 109.5 118.625C107.08 118.625 104.759 119.586 103.048 121.298C101.336 123.009 100.375 125.33 100.375 127.75C100.375 130.17 101.336 132.491 103.048 134.202C104.759 135.914 107.08 136.875 109.5 136.875ZM109.5 136.875V164.25M60.225 91.25H158.775C166.805 91.25 173.375 97.82 173.375 105.85V169.725C173.375 181.77 163.52 191.625 151.475 191.625H67.525C55.48 191.625 45.625 181.77 45.625 169.725V105.85C45.625 97.82 52.195 91.25 60.225 91.25Z" stroke="black" stroke-width="4.0625" stroke-miterlimit="10" stroke-linecap="round" stroke-linejoin="round"/>
</svg>
