<svg width="219" height="219" viewBox="0 0 219 219" fill="none" xmlns="http://www.w3.org/2000/svg">
<g clip-path="url(#clip0_281_747)">
<mask id="mask0_281_747" style="mask-type:luminance" maskUnits="userSpaceOnUse" x="0" y="0" width="219" height="219">
<path d="M0 0H219V219H0V0Z" fill="white"/>
</mask>
<g mask="url(#mask0_281_747)">
<path d="M112.922 119.766C112.922 125.364 110.232 130.332 106.078 133.453V157.406C106.078 160.129 104.997 162.74 103.071 164.665C101.146 166.59 98.5351 167.672 95.8125 167.672C93.0899 167.672 90.4788 166.59 88.5536 164.665C86.6284 162.74 85.5469 160.129 85.5469 157.406V133.453C83.2138 131.703 81.3667 129.386 80.181 126.722C78.9953 124.057 78.5104 121.134 78.7723 118.229C79.0342 115.324 80.0342 112.535 81.6774 110.126C83.3206 107.716 85.5524 105.767 88.161 104.463C90.7695 103.158 93.6681 102.542 96.5815 102.674C99.495 102.805 102.327 103.678 104.807 105.212C107.288 106.745 109.336 108.887 110.756 111.434C112.176 113.981 112.922 116.849 112.922 119.766ZM181.359 47.9062C181.359 49.7213 180.638 51.4621 179.355 52.7455C178.071 54.029 176.331 54.75 174.516 54.75C172.701 54.75 170.96 54.029 169.676 52.7455C168.393 51.4621 167.672 49.7213 167.672 47.9062C167.672 46.0912 168.393 44.3504 169.676 43.067C170.96 41.7835 172.701 41.0625 174.516 41.0625C176.331 41.0625 178.071 41.7835 179.355 43.067C180.638 44.3504 181.359 46.0912 181.359 47.9062Z" fill="black"/>
<path d="M54.75 41.0625C54.75 30.172 59.0762 19.7276 66.7769 12.0269C74.4776 4.32621 84.9221 0 95.8125 0C106.703 0 117.147 4.32621 124.848 12.0269C132.549 19.7276 136.875 30.172 136.875 41.0625V41.2678C140.887 34.9134 146.443 29.6788 153.025 26.0527C159.607 22.4265 167.001 20.527 174.516 20.5312V20.5449C184.138 20.5431 193.502 23.6617 201.202 29.4327C208.903 35.2038 214.524 43.3161 217.223 52.5526C219.922 61.7891 219.553 71.6518 216.171 80.6609C212.79 89.67 206.579 97.3397 198.469 102.519V153.991C198.469 159.751 196.393 165.318 192.622 169.672C188.852 174.026 183.638 176.875 177.938 177.698V177.938C177.938 185.198 175.053 192.161 169.92 197.295C164.786 202.428 157.823 205.312 150.562 205.312H41.0625C33.8022 205.312 26.8393 202.428 21.7055 197.295C16.5716 192.161 13.6875 185.198 13.6875 177.938V88.9688C13.6875 81.7085 16.5716 74.7455 21.7055 69.6117C26.8393 64.4779 33.8022 61.5938 41.0625 61.5938H54.75V41.0625ZM164.25 175.638C160.155 173.696 156.695 170.631 154.272 166.8C151.849 162.97 150.563 158.531 150.562 153.998V141.994C150.562 138.305 151.637 134.706 153.656 131.619C153.004 129.704 152.671 127.695 152.67 125.672C153.594 122.972 153.884 120.095 153.518 117.265C153.153 114.435 152.141 111.727 150.562 109.349V102.506C140.822 96.2882 133.884 86.5245 131.215 75.2812H41.0625C37.4323 75.2812 33.9509 76.7233 31.384 79.2902C28.8171 81.8571 27.375 85.3386 27.375 88.9688V177.938C27.375 181.568 28.8171 185.049 31.384 187.616C33.9509 190.183 37.4323 191.625 41.0625 191.625H150.562C154.193 191.625 157.674 190.183 160.241 187.616C162.808 185.049 164.25 181.568 164.25 177.938V175.638ZM119.766 41.0625C119.766 34.7097 117.242 28.6172 112.75 24.1251C108.258 19.633 102.165 17.1094 95.8125 17.1094C89.4597 17.1094 83.3672 19.633 78.8751 24.1251C74.383 28.6172 71.8594 34.7097 71.8594 41.0625V61.5938H119.766V41.0625ZM174.516 34.2119C167.246 34.2057 160.209 36.7712 154.649 41.4545C149.089 46.1378 145.365 52.6369 144.136 59.8017C142.907 66.9666 144.252 74.3353 147.933 80.6039C151.614 86.8724 157.394 91.6367 164.25 94.0537V109.329C164.253 110.663 164.781 111.941 165.721 112.888L167.87 115.009C168.348 115.471 168.728 116.024 168.987 116.635C169.247 117.246 169.381 117.904 169.381 118.568C169.381 119.232 169.247 119.89 168.987 120.501C168.728 121.112 168.348 121.665 167.87 122.127C167.395 122.582 167.016 123.129 166.757 123.735C166.499 124.341 166.365 124.993 166.365 125.651C166.365 126.31 166.499 126.962 166.757 127.567C167.016 128.173 167.395 128.72 167.87 129.176C168.348 129.637 168.728 130.19 168.987 130.802C169.247 131.413 169.381 132.07 169.381 132.735C169.381 133.399 169.247 134.056 168.987 134.668C168.728 135.279 168.348 135.832 167.87 136.293L165.721 138.415C165.25 138.879 164.876 139.433 164.624 140.045C164.371 140.656 164.244 141.312 164.25 141.974V153.978C164.25 156.7 165.332 159.311 167.257 161.236C169.182 163.162 171.793 164.243 174.516 164.243C177.238 164.243 179.849 163.162 181.775 161.236C183.7 159.311 184.781 156.7 184.781 153.978V94.0537C191.637 91.6367 197.417 86.8724 201.098 80.6039C204.78 74.3353 206.125 66.9666 204.895 59.8017C203.666 52.6369 199.942 46.1378 194.382 41.4545C188.823 36.7712 181.785 34.2057 174.516 34.2119Z" fill="black"/>
</g>
</g>
<defs>
<clipPath id="clip0_281_747">
<rect width="219" height="219" fill="white"/>
</clipPath>
</defs>
</svg>
