<svg width="40" height="40" viewBox="0 0 40 40" fill="none" xmlns="http://www.w3.org/2000/svg">
<path d="M20.7998 33.3334C20.5632 33.3334 20.3654 33.2539 20.2065 33.095C20.0476 32.9361 19.9682 32.7378 19.9682 32.5C19.9682 32.2622 20.0476 32.0639 20.2065 31.905C20.3654 31.7461 20.5637 31.6667 20.8015 31.6667H30.6415C30.8971 31.6667 31.1321 31.56 31.3465 31.3467C31.561 31.1334 31.6676 30.8978 31.6665 30.64V9.36002C31.6665 9.10335 31.5598 8.8678 31.3465 8.65335C31.1332 8.43891 30.8976 8.33224 30.6398 8.33335H20.8015C20.5637 8.33335 20.3654 8.25391 20.2065 8.09502C20.0476 7.93613 19.9682 7.7378 19.9682 7.50002C19.9682 7.26224 20.0476 7.06391 20.2065 6.90502C20.3654 6.74613 20.5637 6.66669 20.8015 6.66669H30.6415C31.4082 6.66669 32.0487 6.92391 32.5632 7.43835C33.0776 7.9528 33.3343 8.59335 33.3332 9.36002V30.6417C33.3332 31.4084 33.0765 32.0489 32.5632 32.5634C32.0498 33.0778 31.4087 33.3345 30.6398 33.3334H20.7998ZM21.4782 20.8334H7.49985C7.26318 20.8334 7.06485 20.7539 6.90485 20.595C6.74485 20.4361 6.6654 20.2378 6.66652 20C6.66763 19.7622 6.74707 19.5639 6.90485 19.405C7.06263 19.2461 7.26096 19.1667 7.49985 19.1667H21.4782L18.1915 15.8817C18.036 15.7261 17.9526 15.5384 17.9415 15.3184C17.9304 15.0972 18.0137 14.895 18.1915 14.7117C18.3693 14.5284 18.566 14.435 18.7815 14.4317C18.9971 14.4284 19.1971 14.5184 19.3815 14.7017L23.7365 19.0567C24.0054 19.3267 24.1398 19.6411 24.1398 20C24.1398 20.3589 24.0054 20.6734 23.7365 20.9434L19.3815 25.2984C19.2193 25.4606 19.0265 25.5456 18.8032 25.5534C18.5798 25.5611 18.376 25.4728 18.1915 25.2884C18.0137 25.105 17.9271 24.9067 17.9315 24.6934C17.9348 24.4811 18.0248 24.2867 18.2015 24.11L21.4782 20.8334Z" fill="black"/>
</svg>
