<svg width="40" height="40" viewBox="0 0 40 40" fill="none" xmlns="http://www.w3.org/2000/svg">
<path d="M34.9467 30.7467C34.9305 31.3219 34.7989 31.8881 34.5597 32.4115C34.3204 32.9349 33.9784 33.4049 33.554 33.7935C33.1296 34.1822 32.6314 34.4816 32.089 34.674C31.5466 34.8663 30.9711 34.9477 30.3967 34.9133C26.8083 34.9333 23.22 34.9133 19.6317 34.9133C19.4107 34.9133 19.1987 34.8255 19.0424 34.6693C18.8861 34.513 18.7983 34.301 18.7983 34.08C18.7983 33.859 18.8861 33.647 19.0424 33.4907C19.1987 33.3345 19.4107 33.2467 19.6317 33.2467C23.2983 33.2467 26.965 33.3 30.6317 33.2467C32.4767 33.22 33.28 31.8333 33.28 30.1833V9.41167C33.2919 8.88731 33.144 8.37174 32.8558 7.9335C32.5676 7.49527 32.1528 7.15514 31.6667 6.95834C31.0914 6.80049 30.4925 6.74687 29.8983 6.8H19.6317C19.4107 6.8 19.1987 6.71221 19.0424 6.55593C18.8861 6.39965 18.7983 6.18768 18.7983 5.96667C18.7983 5.74566 18.8861 5.53369 19.0424 5.37741C19.1987 5.22113 19.4107 5.13334 19.6317 5.13334C23.3383 5.13334 27.0733 4.99167 30.7767 5.13334C31.3438 5.14768 31.9024 5.27467 32.42 5.50691C32.9376 5.73915 33.4038 6.07201 33.7915 6.48612C34.1793 6.90023 34.4808 7.38732 34.6785 7.91904C34.8763 8.45076 34.9663 9.0165 34.9433 9.58334L34.9467 30.7467Z" fill="black"/>
<path d="M5.29346 19.4383C5.15337 19.5754 5.07106 19.7608 5.06346 19.9567C5.06568 19.98 5.06235 20.0039 5.05346 20.0283C5.04013 20.065 5.05346 20.0733 5.06346 20.0967C5.07064 20.2931 5.15298 20.4792 5.29346 20.6167L11.4085 26.7317C11.5656 26.8835 11.7761 26.9675 11.9946 26.9656C12.2131 26.9637 12.4221 26.876 12.5766 26.7215C12.7312 26.567 12.8188 26.358 12.8207 26.1395C12.8226 25.921 12.7386 25.7105 12.5868 25.5533L7.89513 20.86H25.7985C26.0195 20.86 26.2314 20.7722 26.3877 20.6159C26.544 20.4596 26.6318 20.2477 26.6318 20.0267C26.6318 19.8057 26.544 19.5937 26.3877 19.4374C26.2314 19.2811 26.0195 19.1933 25.7985 19.1933H7.89513L12.5868 14.5C12.7386 14.3428 12.8226 14.1323 12.8207 13.9138C12.8188 13.6953 12.7312 13.4863 12.5766 13.3318C12.4221 13.1773 12.2131 13.0897 11.9946 13.0878C11.7761 13.0859 11.5656 13.1699 11.4085 13.3217L5.29346 19.4383Z" fill="black"/>
</svg>
