<svg width="219" height="219" viewBox="0 0 219 219" fill="none" xmlns="http://www.w3.org/2000/svg">
<path d="M141.337 194.089L108.87 161.622L115.331 155.161L141.337 181.168L193.24 129.265L199.701 135.716L141.337 194.089ZM109.5 100.375L179.689 54.75H39.3105L109.5 100.375ZM109.5 110.559L36.5 62.8256V158.638C36.5 160.275 37.0262 161.619 38.0786 162.671C39.131 163.724 40.4785 164.25 42.121 164.25H85.775L94.9 173.375H42.121C37.9174 173.375 34.4104 171.97 31.5999 169.159C28.7894 166.349 27.3811 162.839 27.375 158.629V60.371C27.375 56.1674 28.7833 52.6604 31.5999 49.8499C34.4165 47.0394 37.9205 45.6311 42.1119 45.625H176.888C181.086 45.625 184.59 47.0333 187.4 49.8499C190.211 52.6665 191.619 56.1735 191.625 60.371V105.321L182.5 114.446V62.8256L109.5 110.559Z" fill="black"/>
</svg>
