<svg width="40" height="40" viewBox="0 0 40 40" fill="none" xmlns="http://www.w3.org/2000/svg">
<path fill-rule="evenodd" clip-rule="evenodd" d="M20.0002 22.5C21.7683 22.5 23.464 21.7976 24.7142 20.5473C25.9645 19.2971 26.6668 17.6014 26.6668 15.8333C26.6668 14.0652 25.9645 12.3695 24.7142 11.1192C23.464 9.869 21.7683 9.16663 20.0002 9.16663C18.2321 9.16663 16.5364 9.869 15.2861 11.1192C14.0359 12.3695 13.3335 14.0652 13.3335 15.8333C13.3335 17.6014 14.0359 19.2971 15.2861 20.5473C16.5364 21.7976 18.2321 22.5 20.0002 22.5ZM20.0002 20.8333C20.6568 20.8333 21.307 20.704 21.9136 20.4527C22.5202 20.2014 23.0714 19.8331 23.5357 19.3688C24 18.9045 24.3683 18.3533 24.6196 17.7467C24.8708 17.1401 25.0002 16.4899 25.0002 15.8333C25.0002 15.1767 24.8708 14.5265 24.6196 13.9199C24.3683 13.3132 24 12.7621 23.5357 12.2978C23.0714 11.8335 22.5202 11.4652 21.9136 11.2139C21.307 10.9626 20.6568 10.8333 20.0002 10.8333C18.6741 10.8333 17.4023 11.3601 16.4646 12.2978C15.5269 13.2354 15.0002 14.5072 15.0002 15.8333C15.0002 17.1594 15.5269 18.4311 16.4646 19.3688C17.4023 20.3065 18.6741 20.8333 20.0002 20.8333Z" fill="black"/>
<path fill-rule="evenodd" clip-rule="evenodd" d="M36.6668 20C36.6668 29.205 29.2052 36.6666 20.0002 36.6666C10.7952 36.6666 3.3335 29.205 3.3335 20C3.3335 10.795 10.7952 3.33331 20.0002 3.33331C29.2052 3.33331 36.6668 10.795 36.6668 20ZM28.0252 32.675C25.6263 34.1986 22.842 35.0052 20.0002 35C17.0904 35.0053 14.2427 34.1594 11.8077 32.5666C11.6077 32.3166 11.4049 32.0583 11.1993 31.7916C10.9609 31.4793 10.8323 31.097 10.8335 30.7041C10.8335 29.8066 11.4785 29.0541 12.341 28.9283C18.0452 28.095 21.9727 28.1666 27.6843 28.9575C28.0977 29.0179 28.4754 29.2257 28.7478 29.5425C29.0202 29.8593 29.169 30.2638 29.1668 30.6816C29.1668 31.0816 29.0293 31.47 28.781 31.7733C28.5249 32.085 28.2729 32.3855 28.0252 32.675ZM30.821 30.3883C30.6877 28.8283 29.5035 27.5266 27.9127 27.3066C22.066 26.4975 17.9793 26.42 12.1002 27.2791C10.5002 27.5125 9.321 28.8258 9.181 30.39C6.49377 27.5992 4.99487 23.8742 5.00016 20C5.00016 11.7158 11.716 4.99998 20.0002 4.99998C28.2843 4.99998 35.0002 11.7158 35.0002 20C35.0055 23.8734 33.5072 27.5977 30.821 30.3883Z" fill="black"/>
</svg>
