<svg width="44" height="44" viewBox="0 0 44 44" fill="none" xmlns="http://www.w3.org/2000/svg">
<path d="M33.9166 29.6028C33.9166 32.8849 32.6128 36.0325 30.2921 38.3533C27.9713 40.674 24.8237 41.9778 21.5416 41.9778C18.2596 41.9778 15.1119 40.674 12.7912 38.3533C10.4704 36.0325 9.16663 32.8849 9.16663 29.6028C9.16663 20.6745 17.3213 7.21417 20.3903 2.4695C20.5137 2.27607 20.6839 2.11686 20.8852 2.00657C21.0864 1.89628 21.3122 1.83847 21.5416 1.83847C21.7711 1.83847 21.9969 1.89628 22.1981 2.00657C22.3993 2.11686 22.5695 2.27607 22.693 2.4695C25.762 7.21417 33.9166 20.6745 33.9166 29.6028Z" stroke="black" stroke-width="2.75" stroke-linecap="round" stroke-linejoin="round"/>
<path d="M21.5416 36.4833C20.6383 36.4833 19.7439 36.3053 18.9094 35.9595C18.0749 35.6136 17.3168 35.1067 16.6783 34.4678C16.0398 33.8288 15.5336 33.0702 15.1884 32.2355C14.8432 31.4007 14.6659 30.5061 14.6666 29.6028" stroke="black" stroke-width="2.75" stroke-linecap="round" stroke-linejoin="round"/>
</svg>
