<svg width="65" height="65" viewBox="0 0 65 65" fill="none" xmlns="http://www.w3.org/2000/svg">
<path d="M32.5 54.1667L26.0379 48.3221C22.7518 45.3194 19.964 42.658 17.6746 40.3379C15.3851 38.0178 13.5363 35.8692 12.1279 33.8921C10.7196 31.9114 9.70035 30.0517 9.07021 28.3129C8.44007 26.5742 8.125 24.8047 8.125 23.0046C8.125 19.5596 9.295 16.6707 11.635 14.3379C13.975 12.0015 16.8675 10.8333 20.3125 10.8333C22.6958 10.8333 24.9302 11.4427 27.0156 12.6615C29.101 13.8802 30.9292 15.6533 32.5 17.9806C34.0708 15.6533 35.899 13.8802 37.9844 12.6615C40.0698 11.4427 42.3042 10.8333 44.6875 10.8333C47.7425 10.8333 50.4797 11.8589 52.8992 13.91C55.3186 15.9611 56.6556 18.6514 56.9102 21.9808H54.0665C53.8209 19.1046 52.6681 16.9794 50.6079 15.6054C48.5514 14.2296 46.5779 13.5417 44.6875 13.5417C42.4901 13.5417 40.495 14.1628 38.7021 15.405C36.9092 16.6472 35.2047 18.5259 33.5888 21.041H31.4112C29.7682 18.4898 28.0466 16.6021 26.2465 15.3779C24.4463 14.1537 22.4683 13.5417 20.3125 13.5417C17.671 13.5417 15.4303 14.4417 13.5904 16.2419C11.7524 18.042 10.8333 20.2962 10.8333 23.0046C10.8333 24.5285 11.1493 26.084 11.7812 27.671C12.4132 29.2581 13.5417 31.0908 15.1667 33.169C16.7917 35.2471 19.0035 37.6729 21.8021 40.4462C24.6007 43.2178 28.1667 46.5689 32.5 50.4996L37.2044 46.2339C39.891 43.8181 42.5272 41.2831 45.1127 38.629C47.6983 35.9748 50.0274 33.1337 52.1002 30.1058H44.265V27.3975H56.9265V39.9912H54.2181V31.7958C52.1237 34.9429 49.725 37.8824 47.0221 40.6142C44.3192 43.346 41.5657 45.983 38.7617 48.5252L32.5 54.1667Z" fill="black"/>
</svg>
