<svg width="40" height="40" viewBox="0 0 40 40" fill="none" xmlns="http://www.w3.org/2000/svg">
<path d="M20.0002 20C23.6821 20 26.6668 17.0152 26.6668 13.3333C26.6668 9.65142 23.6821 6.66666 20.0002 6.66666C16.3183 6.66666 13.3335 9.65142 13.3335 13.3333C13.3335 17.0152 16.3183 20 20.0002 20Z" stroke="black" stroke-width="1.66667" stroke-linecap="round"/>
<path fill-rule="evenodd" clip-rule="evenodd" d="M25.4602 26.6666C23.107 25.9317 20.6299 25.6789 18.1768 25.9233C15.4435 26.1933 12.8585 27.0666 10.7502 28.4516C8.64349 29.8383 7.09016 31.69 6.33682 33.7983C6.29484 33.9024 6.27433 34.014 6.27653 34.1262C6.27872 34.2384 6.30356 34.3491 6.34957 34.4515C6.39558 34.5539 6.46181 34.6459 6.54428 34.7221C6.62674 34.7983 6.72375 34.857 6.82947 34.8947C6.9352 34.9325 7.04746 34.9485 7.15952 34.9418C7.27158 34.9351 7.38113 34.9058 7.48159 34.8557C7.58205 34.8056 7.67136 34.7357 7.74414 34.6502C7.81693 34.5648 7.8717 34.4655 7.90516 34.3583C8.51682 32.6466 9.80849 31.0666 11.6668 29.845C13.5252 28.6233 15.8468 27.8283 18.3418 27.5816C19.2585 27.4916 20.1802 27.4766 21.0902 27.535C21.7038 26.9764 22.5037 26.6668 23.3335 26.6666H25.4602Z" fill="black"/>
<path d="M30.0002 23.3333V36.6666M36.6668 30H23.3335" stroke="black" stroke-width="1.66667" stroke-linecap="round"/>
</svg>
