<svg width="219" height="219" viewBox="0 0 219 219" fill="none" xmlns="http://www.w3.org/2000/svg">
<path d="M86.0013 89.1987C85.4927 88.6888 84.8886 88.2843 84.2234 88.0083C83.5583 87.7323 82.8452 87.5902 82.125 87.5902C81.4049 87.5902 80.6918 87.7323 80.0266 88.0083C79.3615 88.2843 78.7573 88.6888 78.2487 89.1987L71.175 96.2833L64.1013 89.1987C63.0733 88.1706 61.6789 87.5931 60.225 87.5931C58.7711 87.5931 57.3768 88.1706 56.3487 89.1987C55.3207 90.2267 54.7431 91.6211 54.7431 93.075C54.7431 94.5289 55.3207 95.9232 56.3487 96.9513L63.4334 104.025L56.3487 111.099C55.3207 112.127 54.7431 113.521 54.7431 114.975C54.7431 116.429 55.3207 117.823 56.3487 118.851C57.3768 119.879 58.7711 120.457 60.225 120.457C61.6789 120.457 63.0733 119.879 64.1013 118.851L71.175 111.767L78.2487 118.851C79.2768 119.879 80.6711 120.457 82.125 120.457C83.5789 120.457 84.9733 119.879 86.0013 118.851C87.0294 117.823 87.6069 116.429 87.6069 114.975C87.6069 113.521 87.0294 112.127 86.0013 111.099L78.9167 104.025L86.0013 96.9513C86.5112 96.4427 86.9157 95.8385 87.1917 95.1734C87.4677 94.5082 87.6098 93.7951 87.6098 93.075C87.6098 92.3548 87.4677 91.6418 87.1917 90.9766C86.9157 90.3114 86.5112 89.7073 86.0013 89.1987ZM122.049 89.1987C122.558 88.6896 123.162 88.2858 123.827 88.0104C124.492 87.7349 125.205 87.5931 125.925 87.5931C126.645 87.5931 127.358 87.7349 128.023 88.0104C128.688 88.2858 129.292 88.6896 129.801 89.1987C130.31 89.7077 130.714 90.312 130.99 90.9771C131.265 91.6422 131.407 92.3551 131.407 93.075C131.407 93.7949 131.265 94.5077 130.99 95.1728C130.714 95.8379 130.31 96.4422 129.801 96.9513L122.717 104.025L129.801 111.099C130.829 112.127 131.407 113.521 131.407 114.975C131.407 116.429 130.829 117.823 129.801 118.851C128.773 119.879 127.379 120.457 125.925 120.457C124.471 120.457 123.077 119.879 122.049 118.851L114.975 111.767L107.901 118.851C106.873 119.879 105.479 120.457 104.025 120.457C102.571 120.457 101.177 119.879 100.149 118.851C99.1207 117.823 98.5431 116.429 98.5431 114.975C98.5431 113.521 99.1207 112.127 100.149 111.099L107.233 104.025L100.149 96.9513C99.1207 95.9232 98.5431 94.5289 98.5431 93.075C98.5431 91.6211 99.1207 90.2267 100.149 89.1987C101.177 88.1706 102.571 87.5931 104.025 87.5931C105.479 87.5931 106.873 88.1706 107.901 89.1987L114.975 96.2833L122.049 89.1987ZM147.825 109.5C146.373 109.5 144.98 110.077 143.954 111.104C142.927 112.13 142.35 113.523 142.35 114.975C142.35 116.427 142.927 117.82 143.954 118.846C144.98 119.873 146.373 120.45 147.825 120.45H169.725C171.177 120.45 172.57 119.873 173.596 118.846C174.623 117.82 175.2 116.427 175.2 114.975C175.2 113.523 174.623 112.13 173.596 111.104C172.57 110.077 171.177 109.5 169.725 109.5H147.825ZM52.0125 43.8C44.0262 43.8 36.367 46.9725 30.7198 52.6197C25.0726 58.2669 21.9 65.9262 21.9 73.9125V134.137C21.9 142.124 25.0726 149.783 30.7198 155.43C36.367 161.077 44.0262 164.25 52.0125 164.25H166.988C174.974 164.25 182.633 161.077 188.28 155.43C193.927 149.783 197.1 142.124 197.1 134.137V73.9125C197.1 65.9262 193.927 58.2669 188.28 52.6197C182.633 46.9725 174.974 43.8 166.988 43.8H52.0125ZM32.85 73.9125C32.85 63.3348 41.4348 54.75 52.0125 54.75H166.988C177.565 54.75 186.15 63.3348 186.15 73.9125V134.137C186.15 139.22 184.131 144.094 180.537 147.687C176.944 151.281 172.07 153.3 166.988 153.3H52.0125C46.9303 153.3 42.0563 151.281 38.4626 147.687C34.8689 144.094 32.85 139.22 32.85 134.137V73.9125Z" fill="black"/>
</svg>
